<mxfile host="app.diagrams.net" modified="2022-05-13T14:28:06.261Z" agent="5.0 (Windows NT 6.1) AppleWebKit/537.36 (KHTML, like Gecko) Chrome/101.0.4951.67 Safari/537.36" etag="ALrz-kUkQuT2SmxgeXUa" version="18.0.3" type="github">
  <diagram id="C5RBs43oDa-KdzZeNtuy" name="Page-1">
    <mxGraphModel dx="782" dy="1683" grid="1" gridSize="10" guides="1" tooltips="1" connect="1" arrows="1" fold="1" page="1" pageScale="1" pageWidth="827" pageHeight="1169" math="0" shadow="0">
      <root>
        <mxCell id="WIyWlLk6GJQsqaUBKTNV-0" />
        <mxCell id="WIyWlLk6GJQsqaUBKTNV-1" parent="WIyWlLk6GJQsqaUBKTNV-0" />
        <mxCell id="WIyWlLk6GJQsqaUBKTNV-2" value="" style="rounded=0;html=1;jettySize=auto;orthogonalLoop=1;fontSize=11;endArrow=block;endFill=0;endSize=8;strokeWidth=1;shadow=0;labelBackgroundColor=none;edgeStyle=orthogonalEdgeStyle;" parent="WIyWlLk6GJQsqaUBKTNV-1" source="WIyWlLk6GJQsqaUBKTNV-3" target="WIyWlLk6GJQsqaUBKTNV-6" edge="1">
          <mxGeometry relative="1" as="geometry" />
        </mxCell>
        <mxCell id="WIyWlLk6GJQsqaUBKTNV-3" value="&#xa;Read num1, num2, num3&#xa;&#xa;" style="rounded=1;whiteSpace=wrap;html=1;fontSize=12;glass=0;strokeWidth=1;shadow=0;" parent="WIyWlLk6GJQsqaUBKTNV-1" vertex="1">
          <mxGeometry x="167.5" y="-30" width="125" height="50" as="geometry" />
        </mxCell>
        <mxCell id="WIyWlLk6GJQsqaUBKTNV-4" value="Else if" style="rounded=0;html=1;jettySize=auto;orthogonalLoop=1;fontSize=11;endArrow=block;endFill=0;endSize=8;strokeWidth=1;shadow=0;labelBackgroundColor=none;edgeStyle=orthogonalEdgeStyle;" parent="WIyWlLk6GJQsqaUBKTNV-1" source="WIyWlLk6GJQsqaUBKTNV-6" target="WIyWlLk6GJQsqaUBKTNV-10" edge="1">
          <mxGeometry y="20" relative="1" as="geometry">
            <mxPoint as="offset" />
          </mxGeometry>
        </mxCell>
        <mxCell id="WIyWlLk6GJQsqaUBKTNV-5" value="Then" style="edgeStyle=orthogonalEdgeStyle;rounded=0;html=1;jettySize=auto;orthogonalLoop=1;fontSize=11;endArrow=block;endFill=0;endSize=8;strokeWidth=1;shadow=0;labelBackgroundColor=none;" parent="WIyWlLk6GJQsqaUBKTNV-1" source="WIyWlLk6GJQsqaUBKTNV-6" target="WIyWlLk6GJQsqaUBKTNV-7" edge="1">
          <mxGeometry y="10" relative="1" as="geometry">
            <mxPoint as="offset" />
          </mxGeometry>
        </mxCell>
        <mxCell id="WIyWlLk6GJQsqaUBKTNV-6" value="&#xa;If (num1 &amp;lt; num2 &amp;lt; num3)&#xa;&#xa;" style="rhombus;whiteSpace=wrap;html=1;shadow=0;fontFamily=Helvetica;fontSize=12;align=center;strokeWidth=1;spacing=6;spacingTop=-4;" parent="WIyWlLk6GJQsqaUBKTNV-1" vertex="1">
          <mxGeometry x="160" y="70" width="140" height="120" as="geometry" />
        </mxCell>
        <mxCell id="WIyWlLk6GJQsqaUBKTNV-7" value="&#xa;Write num1 , num2, num3&#xa;&#xa;" style="rounded=1;whiteSpace=wrap;html=1;fontSize=12;glass=0;strokeWidth=1;shadow=0;direction=south;" parent="WIyWlLk6GJQsqaUBKTNV-1" vertex="1">
          <mxGeometry x="380" y="92.5" width="90" height="75" as="geometry" />
        </mxCell>
        <mxCell id="WIyWlLk6GJQsqaUBKTNV-9" value="Then" style="edgeStyle=orthogonalEdgeStyle;rounded=0;html=1;jettySize=auto;orthogonalLoop=1;fontSize=11;endArrow=block;endFill=0;endSize=8;strokeWidth=1;shadow=0;labelBackgroundColor=none;" parent="WIyWlLk6GJQsqaUBKTNV-1" source="WIyWlLk6GJQsqaUBKTNV-10" target="WIyWlLk6GJQsqaUBKTNV-12" edge="1">
          <mxGeometry y="10" relative="1" as="geometry">
            <mxPoint as="offset" />
          </mxGeometry>
        </mxCell>
        <mxCell id="qwRNPKdH-XCy-J3ALvRD-5" value="Else if" style="edgeStyle=orthogonalEdgeStyle;rounded=0;orthogonalLoop=1;jettySize=auto;html=1;" edge="1" parent="WIyWlLk6GJQsqaUBKTNV-1" source="WIyWlLk6GJQsqaUBKTNV-10" target="qwRNPKdH-XCy-J3ALvRD-1">
          <mxGeometry relative="1" as="geometry" />
        </mxCell>
        <mxCell id="WIyWlLk6GJQsqaUBKTNV-10" value="(num1 &amp;lt; num3 &amp;lt; num2" style="rhombus;whiteSpace=wrap;html=1;shadow=0;fontFamily=Helvetica;fontSize=12;align=center;strokeWidth=1;spacing=6;spacingTop=-4;" parent="WIyWlLk6GJQsqaUBKTNV-1" vertex="1">
          <mxGeometry x="167.5" y="230" width="125" height="90" as="geometry" />
        </mxCell>
        <mxCell id="WIyWlLk6GJQsqaUBKTNV-12" value="Write num1, num3, num2" style="rounded=1;whiteSpace=wrap;html=1;fontSize=12;glass=0;strokeWidth=1;shadow=0;" parent="WIyWlLk6GJQsqaUBKTNV-1" vertex="1">
          <mxGeometry x="350" y="255" width="120" height="40" as="geometry" />
        </mxCell>
        <mxCell id="qwRNPKdH-XCy-J3ALvRD-0" style="edgeStyle=orthogonalEdgeStyle;rounded=0;orthogonalLoop=1;jettySize=auto;html=1;exitX=0.5;exitY=1;exitDx=0;exitDy=0;" edge="1" parent="WIyWlLk6GJQsqaUBKTNV-1" source="WIyWlLk6GJQsqaUBKTNV-3" target="WIyWlLk6GJQsqaUBKTNV-3">
          <mxGeometry relative="1" as="geometry" />
        </mxCell>
        <mxCell id="qwRNPKdH-XCy-J3ALvRD-7" value="Else if" style="edgeStyle=orthogonalEdgeStyle;rounded=0;orthogonalLoop=1;jettySize=auto;html=1;" edge="1" parent="WIyWlLk6GJQsqaUBKTNV-1" source="qwRNPKdH-XCy-J3ALvRD-1" target="qwRNPKdH-XCy-J3ALvRD-6">
          <mxGeometry relative="1" as="geometry" />
        </mxCell>
        <mxCell id="qwRNPKdH-XCy-J3ALvRD-15" value="Then" style="edgeStyle=orthogonalEdgeStyle;rounded=0;orthogonalLoop=1;jettySize=auto;html=1;" edge="1" parent="WIyWlLk6GJQsqaUBKTNV-1" source="qwRNPKdH-XCy-J3ALvRD-1" target="qwRNPKdH-XCy-J3ALvRD-14">
          <mxGeometry relative="1" as="geometry" />
        </mxCell>
        <mxCell id="qwRNPKdH-XCy-J3ALvRD-1" value="&#xa;(num2 &amp;lt; num1 &amp;lt; num3&#xa;&#xa;" style="rhombus;whiteSpace=wrap;html=1;" vertex="1" parent="WIyWlLk6GJQsqaUBKTNV-1">
          <mxGeometry x="165" y="390" width="130" height="120" as="geometry" />
        </mxCell>
        <mxCell id="qwRNPKdH-XCy-J3ALvRD-9" value="Else if" style="edgeStyle=orthogonalEdgeStyle;rounded=0;orthogonalLoop=1;jettySize=auto;html=1;" edge="1" parent="WIyWlLk6GJQsqaUBKTNV-1" source="qwRNPKdH-XCy-J3ALvRD-6" target="qwRNPKdH-XCy-J3ALvRD-8">
          <mxGeometry relative="1" as="geometry" />
        </mxCell>
        <mxCell id="qwRNPKdH-XCy-J3ALvRD-17" value="Then" style="edgeStyle=orthogonalEdgeStyle;rounded=0;orthogonalLoop=1;jettySize=auto;html=1;" edge="1" parent="WIyWlLk6GJQsqaUBKTNV-1" source="qwRNPKdH-XCy-J3ALvRD-6" target="qwRNPKdH-XCy-J3ALvRD-16">
          <mxGeometry relative="1" as="geometry" />
        </mxCell>
        <mxCell id="qwRNPKdH-XCy-J3ALvRD-6" value="(num2 &amp;lt; num3 &amp;lt; num1" style="rhombus;whiteSpace=wrap;html=1;" vertex="1" parent="WIyWlLk6GJQsqaUBKTNV-1">
          <mxGeometry x="165" y="550" width="130" height="120" as="geometry" />
        </mxCell>
        <mxCell id="qwRNPKdH-XCy-J3ALvRD-11" value="Else if" style="edgeStyle=orthogonalEdgeStyle;rounded=0;orthogonalLoop=1;jettySize=auto;html=1;" edge="1" parent="WIyWlLk6GJQsqaUBKTNV-1" source="qwRNPKdH-XCy-J3ALvRD-8" target="qwRNPKdH-XCy-J3ALvRD-10">
          <mxGeometry relative="1" as="geometry" />
        </mxCell>
        <mxCell id="qwRNPKdH-XCy-J3ALvRD-19" value="Then" style="edgeStyle=orthogonalEdgeStyle;rounded=0;orthogonalLoop=1;jettySize=auto;html=1;" edge="1" parent="WIyWlLk6GJQsqaUBKTNV-1" source="qwRNPKdH-XCy-J3ALvRD-8" target="qwRNPKdH-XCy-J3ALvRD-18">
          <mxGeometry relative="1" as="geometry" />
        </mxCell>
        <mxCell id="qwRNPKdH-XCy-J3ALvRD-8" value="(num2 &amp;lt; num1 &amp;lt; num3" style="rhombus;whiteSpace=wrap;html=1;" vertex="1" parent="WIyWlLk6GJQsqaUBKTNV-1">
          <mxGeometry x="165" y="720" width="130" height="120" as="geometry" />
        </mxCell>
        <mxCell id="qwRNPKdH-XCy-J3ALvRD-13" value="Else if" style="edgeStyle=orthogonalEdgeStyle;rounded=0;orthogonalLoop=1;jettySize=auto;html=1;" edge="1" parent="WIyWlLk6GJQsqaUBKTNV-1" source="qwRNPKdH-XCy-J3ALvRD-10" target="qwRNPKdH-XCy-J3ALvRD-12">
          <mxGeometry relative="1" as="geometry" />
        </mxCell>
        <mxCell id="qwRNPKdH-XCy-J3ALvRD-21" value="Then" style="edgeStyle=orthogonalEdgeStyle;rounded=0;orthogonalLoop=1;jettySize=auto;html=1;" edge="1" parent="WIyWlLk6GJQsqaUBKTNV-1" source="qwRNPKdH-XCy-J3ALvRD-10" target="qwRNPKdH-XCy-J3ALvRD-20">
          <mxGeometry relative="1" as="geometry" />
        </mxCell>
        <mxCell id="qwRNPKdH-XCy-J3ALvRD-10" value="num3 &amp;lt; num1 &amp;lt; num2" style="rhombus;whiteSpace=wrap;html=1;" vertex="1" parent="WIyWlLk6GJQsqaUBKTNV-1">
          <mxGeometry x="165" y="880" width="130" height="120" as="geometry" />
        </mxCell>
        <mxCell id="qwRNPKdH-XCy-J3ALvRD-23" value="Then" style="edgeStyle=orthogonalEdgeStyle;rounded=0;orthogonalLoop=1;jettySize=auto;html=1;" edge="1" parent="WIyWlLk6GJQsqaUBKTNV-1" source="qwRNPKdH-XCy-J3ALvRD-12" target="qwRNPKdH-XCy-J3ALvRD-22">
          <mxGeometry relative="1" as="geometry" />
        </mxCell>
        <mxCell id="qwRNPKdH-XCy-J3ALvRD-25" value="" style="edgeStyle=orthogonalEdgeStyle;rounded=0;orthogonalLoop=1;jettySize=auto;html=1;" edge="1" parent="WIyWlLk6GJQsqaUBKTNV-1" source="qwRNPKdH-XCy-J3ALvRD-12" target="qwRNPKdH-XCy-J3ALvRD-24">
          <mxGeometry relative="1" as="geometry" />
        </mxCell>
        <mxCell id="qwRNPKdH-XCy-J3ALvRD-12" value="num3 &amp;lt; num2&amp;lt; num1" style="rhombus;whiteSpace=wrap;html=1;" vertex="1" parent="WIyWlLk6GJQsqaUBKTNV-1">
          <mxGeometry x="165" y="1070" width="130" height="120" as="geometry" />
        </mxCell>
        <mxCell id="qwRNPKdH-XCy-J3ALvRD-14" value="Write num2, num1, num3" style="rounded=1;whiteSpace=wrap;html=1;" vertex="1" parent="WIyWlLk6GJQsqaUBKTNV-1">
          <mxGeometry x="380" y="420" width="120" height="60" as="geometry" />
        </mxCell>
        <mxCell id="qwRNPKdH-XCy-J3ALvRD-16" value="Write num2, num3, num1" style="rounded=1;whiteSpace=wrap;html=1;" vertex="1" parent="WIyWlLk6GJQsqaUBKTNV-1">
          <mxGeometry x="380" y="580" width="120" height="60" as="geometry" />
        </mxCell>
        <mxCell id="qwRNPKdH-XCy-J3ALvRD-18" value="Write num2, num1, num3" style="rounded=1;whiteSpace=wrap;html=1;" vertex="1" parent="WIyWlLk6GJQsqaUBKTNV-1">
          <mxGeometry x="380" y="750" width="120" height="60" as="geometry" />
        </mxCell>
        <mxCell id="qwRNPKdH-XCy-J3ALvRD-20" value="&lt;span style=&quot;&quot;&gt;Write num3, num1, num2&lt;/span&gt;" style="rounded=1;whiteSpace=wrap;html=1;" vertex="1" parent="WIyWlLk6GJQsqaUBKTNV-1">
          <mxGeometry x="380" y="910" width="120" height="60" as="geometry" />
        </mxCell>
        <mxCell id="qwRNPKdH-XCy-J3ALvRD-22" value="&lt;span style=&quot;&quot;&gt;Write num3, num2, num1&lt;/span&gt;" style="rounded=1;whiteSpace=wrap;html=1;" vertex="1" parent="WIyWlLk6GJQsqaUBKTNV-1">
          <mxGeometry x="380" y="1100" width="120" height="60" as="geometry" />
        </mxCell>
        <mxCell id="qwRNPKdH-XCy-J3ALvRD-24" value="End" style="whiteSpace=wrap;html=1;" vertex="1" parent="WIyWlLk6GJQsqaUBKTNV-1">
          <mxGeometry x="170" y="1260" width="120" height="60" as="geometry" />
        </mxCell>
      </root>
    </mxGraphModel>
  </diagram>
</mxfile>
